ply
format ascii 1.0
comment Created by Blender 2.79 (sub 0) - www.blender.org, source file: ''
element vertex 782
property float x
property float y
property float z
element face 780
property list uchar uint vertex_indices
end_header
0.029053 -0.033576 -0.033420
0.097597 -0.033814 -0.078987
0.033387 -0.033758 -0.036985
0.070523 -0.039646 -0.063601
0.095666 -0.034895 -0.081042
0.015107 -0.031170 -0.025806
0.061438 -0.038860 -0.059292
0.021833 -0.031668 -0.032113
0.040893 -0.034113 -0.040470
0.082222 -0.037386 -0.068128
-0.016590 -0.027421 -0.004570
0.051485 -0.037426 -0.054427
0.085796 -0.039684 -0.080327
0.079250 -0.041651 -0.077871
0.042249 -0.037138 -0.050547
0.070102 -0.043643 -0.072514
0.037561 -0.036239 -0.047979
0.059677 -0.042441 -0.068691
0.002874 -0.029296 -0.022375
0.008650 -0.029526 -0.027528
0.030976 -0.035077 -0.046802
0.068231 -0.045033 -0.079785
0.046358 -0.038662 -0.063763
0.013354 -0.029455 -0.035558
0.061274 -0.045305 -0.080625
0.018461 -0.032582 -0.041309
-0.006572 -0.028193 -0.008730
0.047282 -0.034684 -0.041383
0.096713 -0.033850 -0.072943
0.060278 -0.037567 -0.051009
0.003888 -0.028904 -0.014256
0.055867 -0.044199 -0.077590
0.024316 -0.033646 -0.047630
-0.003499 -0.028618 -0.022047
-0.027303 -0.027124 0.000228
0.027702 -0.036187 -0.054827
0.048588 -0.041833 -0.077429
0.043377 -0.040668 -0.072944
0.051170 -0.045115 -0.082546
0.005728 -0.030467 -0.036496
0.021505 -0.034435 -0.054766
-0.011791 -0.027627 -0.018535
0.031291 -0.038247 -0.069002
0.015181 -0.033592 -0.050831
0.034898 -0.042298 -0.075448
0.038930 -0.043749 -0.081058
0.025015 -0.037336 -0.065156
-0.018730 -0.027451 -0.014163
0.008821 -0.032558 -0.050273
0.018074 -0.036149 -0.063461
0.026662 -0.040646 -0.076473
-0.006280 -0.029007 -0.031870
0.030787 -0.041684 -0.083671
0.010441 -0.035234 -0.058862
0.020949 -0.039929 -0.074317
0.000936 -0.031890 -0.045470
0.021560 -0.041978 -0.083069
0.014755 -0.037848 -0.073032
0.005370 -0.034169 -0.058758
0.008718 -0.036623 -0.068756
-0.015733 -0.028172 -0.027894
-0.023635 -0.027158 -0.015047
-0.010257 -0.030001 -0.040732
-0.003996 -0.032691 -0.054300
0.009381 -0.039339 -0.081326
0.001660 -0.035924 -0.067373
-0.020904 -0.029038 -0.024269
-0.035157 -0.026899 0.003340
0.006341 -0.041808 -0.084880
-0.006173 -0.034196 -0.063911
-0.001274 -0.037085 -0.076625
-0.018974 -0.029049 -0.036172
-0.013847 -0.030791 -0.049950
-0.030724 -0.027391 -0.009980
-0.005669 -0.038723 -0.083830
-0.010079 -0.035601 -0.072825
-0.027502 -0.028273 -0.022278
-0.014049 -0.033035 -0.064298
-0.024849 -0.028581 -0.035241
-0.021866 -0.030426 -0.046522
-0.019732 -0.032467 -0.058422
-0.014129 -0.037970 -0.081809
-0.017379 -0.034421 -0.072685
-0.024349 -0.032097 -0.054350
-0.023407 -0.033858 -0.067435
-0.021060 -0.035937 -0.079623
-0.027962 -0.030071 -0.045346
-0.036533 -0.027903 -0.003464
-0.022514 -0.038528 -0.085611
-0.034845 -0.028221 -0.018210
-0.000265 -0.029431 -0.010432
0.067801 -0.038205 -0.050951
0.013380 -0.028666 -0.018992
0.081601 -0.036873 -0.055390
0.097746 -0.032814 -0.064877
0.017816 -0.029442 -0.019703
0.025464 -0.030203 -0.022336
0.039283 -0.032692 -0.028000
0.030857 -0.032188 -0.024829
0.051430 -0.034208 -0.032563
0.060028 -0.035822 -0.037531
0.065918 -0.036409 -0.039092
0.071961 -0.036808 -0.042546
0.048276 -0.032610 -0.024843
0.084862 -0.034756 -0.047470
0.063636 -0.034495 -0.028035
0.075865 -0.035083 -0.033250
0.027867 -0.029101 -0.015199
0.070054 -0.034583 -0.030035
0.086401 -0.033294 -0.036552
0.034233 -0.030954 -0.014905
0.043627 -0.031499 -0.018424
0.055198 -0.033231 -0.023746
-0.002165 -0.026969 -0.000362
0.022883 -0.028943 -0.009749
0.010765 -0.027921 -0.006048
0.002906 -0.027334 -0.001604
0.086395 -0.032856 -0.029688
-0.011109 -0.026383 0.003123
0.072971 -0.034088 -0.019797
0.082059 -0.033605 -0.024590
0.046890 -0.031860 -0.010039
0.061557 -0.033198 -0.015287
0.038585 -0.030834 -0.006282
0.053013 -0.032526 -0.010620
-0.024042 -0.025769 0.008203
0.084233 -0.033055 -0.016222
0.027397 -0.028932 -0.001750
0.096903 -0.030112 -0.017424
0.063629 -0.032531 -0.005823
0.075384 -0.033856 -0.009921
0.012820 -0.027124 0.003981
0.070023 -0.033146 -0.006485
-0.018097 -0.026214 0.008840
0.056379 -0.031579 -0.002068
0.049922 -0.030343 0.000462
0.020080 -0.028356 0.003511
0.042804 -0.030776 0.002422
0.081495 -0.033524 -0.002525
0.005372 -0.026796 0.008195
0.072573 -0.032915 0.002182
-0.000099 -0.025506 0.007657
0.038040 -0.029882 0.007010
0.066381 -0.031125 0.004974
0.015125 -0.026427 0.008950
0.084007 -0.031651 0.007338
0.058926 -0.031205 0.006732
0.031601 -0.028025 0.008153
0.021951 -0.026965 0.011786
0.095515 -0.028963 0.010439
0.047316 -0.029976 0.012334
0.075188 -0.031011 0.011884
-0.005822 -0.025056 0.012276
0.054790 -0.030277 0.012733
0.040851 -0.028731 0.015754
0.063267 -0.030785 0.015920
0.034464 -0.026886 0.017173
0.080819 -0.030811 0.020519
0.072376 -0.030046 0.024726
0.055473 -0.030203 0.021432
0.009487 -0.026049 0.016381
0.049003 -0.029585 0.022260
0.082740 -0.031059 0.026260
0.066704 -0.029794 0.024343
0.043165 -0.028886 0.025421
0.089916 -0.030274 0.032256
0.024898 -0.026021 0.021209
-0.031844 -0.025703 0.013122
0.077856 -0.030816 0.032977
0.060114 -0.029708 0.029463
-0.033294 -0.029111 -0.032312
-0.027606 -0.035585 -0.078107
-0.031828 -0.031640 -0.054606
-0.030677 -0.037993 -0.084610
-0.036270 -0.028537 -0.026206
-0.033695 -0.033225 -0.063597
-0.033584 -0.034871 -0.074238
-0.036070 -0.029962 -0.041240
-0.037851 -0.037594 -0.083853
-0.039045 -0.026553 -0.010513
-0.039390 -0.034479 -0.071326
-0.039515 -0.031914 -0.049298
-0.041615 -0.032673 -0.059362
-0.043467 -0.036302 -0.080759
-0.044165 -0.038101 -0.086027
-0.040723 -0.027770 -0.018731
-0.046062 -0.034482 -0.069086
-0.045109 -0.031299 -0.050807
-0.043287 -0.028720 -0.026519
-0.050045 -0.034960 -0.077463
-0.048014 -0.032143 -0.057433
-0.046390 -0.029521 -0.035871
-0.054600 -0.037793 -0.085508
-0.052189 -0.033224 -0.067276
-0.040522 -0.026874 0.005021
-0.050940 -0.030766 -0.044730
-0.057725 -0.034678 -0.076069
-0.061060 -0.037025 -0.083594
-0.045962 -0.028101 -0.014691
-0.066703 -0.035578 -0.087971
-0.060448 -0.032315 -0.063855
-0.063004 -0.033780 -0.072672
-0.057879 -0.031809 -0.053546
-0.066885 -0.035483 -0.081016
-0.044109 -0.027219 -0.004370
-0.072145 -0.033961 -0.081268
-0.066419 -0.031714 -0.064381
-0.069492 -0.033053 -0.070694
-0.059259 -0.029983 -0.041734
-0.062124 -0.031832 -0.048926
-0.076268 -0.034948 -0.085719
-0.056189 -0.028953 -0.032153
-0.052639 -0.028306 -0.022405
-0.072150 -0.031116 -0.058882
-0.085850 -0.035070 -0.085524
-0.077281 -0.032392 -0.067673
-0.068850 -0.030980 -0.048898
-0.082085 -0.033546 -0.075813
-0.061817 -0.028236 -0.034152
-0.065355 -0.029438 -0.040012
-0.091060 -0.034449 -0.082790
-0.059113 -0.026391 -0.023648
-0.087753 -0.032307 -0.073875
-0.081960 -0.031635 -0.061651
-0.079153 -0.030548 -0.053335
-0.101715 -0.034844 -0.086898
-0.098215 -0.033957 -0.079859
-0.093550 -0.032354 -0.071414
-0.076821 -0.029956 -0.045203
-0.088774 -0.030817 -0.063332
-0.108277 -0.035767 -0.087021
-0.086359 -0.029879 -0.054619
-0.067033 -0.028456 -0.027280
-0.073488 -0.029075 -0.036158
-0.103723 -0.032862 -0.076760
-0.055309 -0.027799 -0.009904
-0.113823 -0.034600 -0.084957
-0.084176 -0.029600 -0.046072
-0.101854 -0.031604 -0.068726
-0.109693 -0.032192 -0.076602
-0.120040 -0.036931 -0.089034
-0.098297 -0.030572 -0.058324
-0.105686 -0.030887 -0.066198
-0.127084 -0.036749 -0.086885
-0.065156 -0.027153 -0.017042
-0.123278 -0.035088 -0.080675
-0.094276 -0.029367 -0.048660
-0.078479 -0.028883 -0.030738
-0.117017 -0.032490 -0.071806
-0.103505 -0.029410 -0.055831
-0.127038 0.022541 -0.083754
-0.130657 -0.037399 -0.082060
-0.089673 -0.028868 -0.039900
-0.127198 0.022390 -0.081300
-0.113153 -0.030903 -0.062248
-0.136926 -0.034734 -0.085828
-0.137782 -0.006096 -0.088602
-0.138673 -0.024685 -0.087588
-0.139136 -0.014518 -0.087550
-0.129158 -0.036406 -0.075426
-0.139576 -0.026731 -0.084448
-0.136911 -0.020582 -0.082118
-0.108702 -0.029561 -0.053691
-0.139538 -0.000000 -0.084170
-0.126191 -0.034513 -0.068740
-0.085687 -0.028321 -0.030898
-0.140405 0.007018 -0.084017
-0.076166 -0.028311 -0.021764
-0.138680 -0.013297 -0.079776
-0.135683 -0.033086 -0.075250
0.069727 -0.030562 0.037806
0.087405 -0.030972 0.040370
-0.001132 -0.024782 0.020111
0.014017 -0.025524 0.024679
0.037093 -0.029128 0.030190
0.007170 -0.026964 0.023404
0.053532 -0.029657 0.034560
0.047608 -0.028410 0.034032
0.063972 -0.029571 0.038015
0.030944 -0.027526 0.030207
0.080595 -0.030552 0.042598
0.085176 -0.031339 0.051416
0.075564 -0.030131 0.047719
0.020236 -0.025833 0.028579
0.040290 -0.027836 0.037732
-0.013736 -0.024259 0.016779
0.055350 -0.029423 0.043900
0.068219 -0.030080 0.047853
0.049335 -0.028348 0.041194
0.077852 -0.031077 0.055516
0.024340 -0.027437 0.034386
-0.021093 -0.024521 0.017982
0.016224 -0.025733 0.032893
0.059691 -0.030122 0.051987
0.034418 -0.026917 0.040542
0.077257 -0.032873 0.063874
0.043277 -0.028054 0.047471
0.005298 -0.025667 0.029869
-0.002343 -0.025837 0.028375
0.064607 -0.030776 0.059334
0.070691 -0.031653 0.061918
0.026091 -0.026579 0.043266
0.081737 -0.034841 0.070295
0.048906 -0.029582 0.055601
0.056070 -0.029996 0.059108
-0.009406 -0.024964 0.026344
0.069524 -0.034773 0.069834
-0.016061 -0.024485 0.024586
-0.138886 -0.003245 -0.080076
-0.061044 -0.027066 -0.007590
-0.127903 0.021731 -0.070927
-0.141338 0.003629 -0.080519
-0.138424 -0.025156 -0.075718
-0.138810 -0.017825 -0.075334
-0.105385 -0.028673 -0.043745
-0.126000 0.022909 -0.064528
-0.096750 -0.027987 -0.036295
-0.138904 0.011277 -0.074404
-0.136530 -0.011021 -0.070480
-0.053688 -0.027293 -0.000074
0.009963 -0.025941 0.039687
0.056496 -0.032410 0.066014
0.082575 -0.024648 0.079540
0.030172 -0.027331 0.051843
0.035867 -0.028451 0.054630
0.048383 -0.030622 0.063175
0.076748 -0.035660 0.079272
0.039663 -0.029221 0.060043
0.084722 -0.014005 0.084913
0.082202 -0.007407 0.087311
0.083578 0.008851 0.085148
-0.136498 -0.014366 -0.068888
-0.138411 -0.002108 -0.070849
-0.134101 -0.032028 -0.064657
-0.140581 0.005544 -0.072035
-0.137601 -0.021844 -0.066537
-0.128093 0.021414 -0.060096
-0.136536 -0.034006 -0.062273
-0.102025 -0.027608 -0.035333
-0.139086 -0.007111 -0.063808
-0.119838 -0.031365 -0.047802
-0.137828 0.000715 -0.063008
-0.124050 -0.033080 -0.057945
-0.083688 -0.027593 -0.020973
-0.137255 -0.026657 -0.060741
-0.093220 -0.026980 -0.027213
-0.074233 -0.027180 -0.013358
-0.139487 0.007376 -0.061720
-0.114191 -0.029777 -0.040816
-0.137247 -0.011053 -0.057950
-0.136878 -0.018769 -0.056660
-0.138217 -0.002393 -0.058182
-0.134926 -0.032163 -0.053069
-0.137112 -0.023284 -0.052895
-0.079470 -0.026125 -0.013530
-0.139075 0.009010 -0.053079
-0.098438 -0.025868 -0.024784
-0.136337 -0.008881 -0.048198
-0.138328 -0.000066 -0.048871
-0.089586 -0.026004 -0.018164
-0.132859 -0.031337 -0.043529
-0.110545 -0.028396 -0.030133
-0.139835 0.007231 -0.048764
-0.136075 -0.021586 -0.044254
-0.070025 -0.027153 -0.005631
0.061080 -0.039765 0.080184
0.076175 -0.018207 0.086927
0.064726 0.022061 0.077168
0.068039 -0.026861 0.087016
0.075261 -0.006177 0.090123
0.054549 -0.037253 0.076335
0.066904 -0.034967 0.086857
-0.005723 -0.025653 0.035640
0.046864 -0.035309 0.073271
0.024145 -0.027646 0.057305
0.069910 0.012664 0.087083
0.069563 -0.013634 0.091774
0.068178 -0.022138 0.088670
0.033585 -0.031908 0.067917
0.060308 -0.041176 0.087202
0.038813 -0.033567 0.070488
0.064994 0.005537 0.091403
0.067710 -0.002267 0.092434
0.026382 -0.029839 0.064687
0.062786 -0.017047 0.092789
0.003566 -0.024908 0.045337
0.057107 -0.031191 0.090967
0.044999 -0.040086 0.083432
0.050935 -0.042795 0.087551
0.058761 0.009889 0.089850
-0.136493 -0.012454 -0.042662
-0.132508 0.018096 -0.041192
-0.135715 -0.005060 -0.041280
-0.104821 -0.026770 -0.023164
-0.134575 -0.031639 -0.038384
-0.127756 -0.032200 -0.034652
-0.122719 -0.032006 -0.035220
-0.138409 0.009582 -0.041181
-0.097322 -0.025087 -0.017908
-0.136855 0.001909 -0.039137
-0.136477 -0.026076 -0.037434
-0.131808 0.018469 -0.035394
-0.135495 -0.018987 -0.034348
0.017662 -0.028541 0.062526
0.053514 -0.021120 0.093442
-0.027593 -0.025001 0.021975
0.012715 -0.027378 0.058494
0.055076 0.001896 0.093886
-0.003389 -0.025706 0.044699
0.005550 -0.026018 0.052480
0.046514 -0.037068 0.092750
0.044966 -0.027637 0.093482
0.044431 -0.039790 0.092820
0.030265 -0.037436 0.079090
0.045432 -0.004080 0.095235
0.038661 -0.041801 0.091125
-0.012863 -0.025156 0.038787
-0.002573 -0.025026 0.050274
0.040514 -0.020117 0.093544
0.018084 -0.032331 0.071292
0.049985 -0.011984 0.094141
0.033172 -0.039671 0.091098
0.040914 0.002893 0.095182
0.038344 -0.008507 0.095461
0.035493 -0.032483 0.093356
-0.022579 -0.024842 0.031623
0.031109 -0.024561 0.094129
0.034944 -0.010362 0.094550
0.016889 -0.036848 0.081008
0.020886 -0.040352 0.086205
0.032383 0.000390 0.095601
0.028615 -0.001700 0.094935
0.025414 -0.038636 0.092868
0.004158 -0.029625 0.065276
0.026738 -0.014715 0.095179
-0.010964 -0.025523 0.048169
0.023432 -0.025347 0.095446
0.022198 -0.029002 0.094138
-0.017842 -0.024876 0.039916
-0.005558 -0.026356 0.056995
0.014830 -0.040377 0.089219
0.009817 -0.036201 0.079812
0.021696 0.005068 0.094642
0.017038 -0.040501 0.092686
0.019336 -0.018659 0.095370
0.021039 -0.005827 0.095200
-0.016782 -0.024085 0.045280
0.016521 -0.021672 0.094630
0.001979 -0.034610 0.077227
-0.003056 -0.030421 0.067797
0.012328 0.013234 0.087451
0.012934 -0.035850 0.094457
0.014169 -0.011055 0.095529
0.015511 0.001046 0.095447
0.013908 0.006717 0.093269
-0.084354 -0.025656 -0.009079
-0.135370 -0.001927 -0.033341
-0.121261 -0.031004 -0.025602
0.007312 -0.028013 0.095073
0.011112 -0.014223 0.094957
-0.006951 -0.029638 0.066531
0.002932 -0.033340 0.092909
0.008433 -0.003769 0.096060
-0.015351 -0.025895 0.054414
0.000197 -0.039245 0.090168
0.002181 -0.019082 0.094805
0.004309 -0.006107 0.094750
-0.013903 -0.027734 0.061937
0.004150 0.002809 0.096108
-0.008880 -0.034582 0.076782
0.000022 0.001946 0.095348
-0.135077 -0.023240 -0.031294
-0.128827 0.020371 -0.028676
-0.137946 0.010030 -0.030485
-0.136647 0.006108 -0.029656
-0.113375 -0.028414 -0.018073
-0.135862 -0.008189 -0.026991
-0.137193 0.000859 -0.026925
-0.101704 -0.025697 -0.012031
-0.131414 0.018536 -0.023952
-0.138365 0.008876 -0.025431
-0.132458 -0.030289 -0.021773
-0.133538 -0.030941 -0.031002
-0.004724 -0.020012 0.092507
-0.003093 -0.010244 0.094036
-0.005237 -0.035023 0.093648
-0.007787 -0.015836 0.092711
-0.027073 -0.024812 0.042868
-0.033707 -0.025318 0.025682
-0.021716 -0.025340 0.052773
-0.020083 -0.028110 0.063867
-0.006899 0.008368 0.092208
-0.007749 -0.037903 0.085550
-0.023934 -0.027356 0.062644
-0.011458 0.013141 0.088421
-0.013375 -0.036899 0.094036
-0.015714 -0.016700 0.093364
-0.017970 -0.038556 0.089660
-0.031931 -0.024702 0.036153
-0.014684 0.005392 0.093445
-0.016328 -0.002898 0.095856
-0.017914 -0.030055 0.093393
-0.020823 -0.031678 0.092436
-0.023602 -0.036492 0.082107
-0.018332 0.012122 0.089127
-0.022747 -0.039814 0.093110
-0.026611 -0.031381 0.071510
-0.017956 0.000588 0.095566
-0.020163 -0.008097 0.093452
-0.022195 0.018736 0.082915
-0.022998 -0.021342 0.093166
-0.025704 -0.022885 0.092080
-0.031249 -0.026344 0.057761
-0.021562 0.005830 0.092717
-0.033596 -0.025167 0.049630
-0.037207 -0.024015 0.035053
-0.031724 -0.014697 0.092500
-0.033710 -0.037547 0.085681
-0.030902 0.007742 0.092300
-0.033014 -0.028341 0.092813
-0.037731 -0.019541 0.092731
-0.034599 -0.003697 0.094358
-0.037606 -0.027685 0.062643
-0.039034 -0.025302 0.027239
-0.039537 -0.024868 0.049035
-0.037918 -0.006636 0.093049
-0.039634 -0.031993 0.093399
-0.044334 -0.036209 0.090970
-0.042328 -0.033416 0.076168
-0.039020 0.003548 0.093872
-0.042327 -0.026123 0.058654
-0.044093 -0.029672 0.068395
-0.043567 0.000261 0.093697
-0.044039 -0.011639 0.092909
-0.044664 -0.024870 0.093664
-0.043148 0.015135 0.087185
-0.051039 -0.037220 0.085105
-0.047747 0.006539 0.093796
-0.049625 -0.016769 0.093573
-0.052789 -0.034226 0.077692
-0.054152 -0.019541 0.092689
-0.053500 -0.037940 0.090059
-0.055393 0.005816 0.093540
-0.055940 -0.008502 0.094128
-0.049979 -0.028310 0.065178
-0.049791 -0.002774 0.093954
-0.052838 0.016591 0.085750
-0.059946 -0.009947 0.092814
-0.059337 -0.032662 0.091778
-0.061574 -0.036663 0.085063
-0.061340 0.000426 0.094827
-0.059419 -0.031751 0.073108
-0.063961 -0.024284 0.092441
-0.050800 -0.026274 0.045270
-0.065212 -0.002069 0.093439
-0.064487 -0.026806 0.002995
-0.136308 -0.012013 -0.021172
-0.074653 -0.026664 0.000209
-0.134440 -0.005838 -0.019574
-0.093796 -0.025692 -0.005793
-0.048425 -0.027263 0.008970
-0.056085 -0.026774 0.006664
-0.080759 -0.025882 -0.000893
-0.133653 -0.031380 -0.016591
-0.137275 0.009999 -0.018259
-0.136169 0.002133 -0.017475
-0.120768 -0.030548 -0.012007
-0.110397 -0.027048 -0.008167
-0.134760 -0.009336 -0.013708
-0.128985 -0.031019 -0.011655
-0.099000 -0.025860 -0.002786
-0.135756 -0.002364 -0.010780
-0.136346 0.004586 -0.010268
-0.133179 -0.029854 -0.007877
-0.135906 0.011923 -0.008177
-0.120132 -0.030060 -0.003334
-0.087463 -0.025833 0.002967
-0.105031 -0.026574 -0.000123
-0.135807 0.001946 -0.004831
-0.133622 -0.016499 -0.004043
-0.137003 0.008462 -0.002152
-0.134700 -0.013352 -0.000551
-0.132589 0.016144 -0.000301
-0.081173 -0.026691 0.006764
-0.133500 -0.020532 0.000775
-0.131483 -0.030285 0.001482
-0.094128 -0.025725 0.003834
-0.133975 -0.005668 0.003358
-0.114508 -0.028667 0.005389
-0.073135 -0.027762 0.009111
-0.135289 0.010504 0.004075
-0.134947 0.002002 0.004494
-0.130764 0.018473 0.004957
-0.133561 -0.031147 0.006333
-0.101139 -0.026966 0.008930
-0.085891 -0.027920 0.011841
-0.135046 0.005189 0.011764
-0.093163 -0.027897 0.011853
-0.134265 -0.023776 0.013518
-0.133834 -0.017965 0.010918
-0.121292 -0.030619 0.009976
-0.109684 -0.029167 0.015422
-0.135299 0.001082 0.017689
-0.134869 -0.008347 0.018487
-0.068559 -0.029361 0.013903
-0.079996 -0.028765 0.013077
-0.132805 -0.015030 0.020203
-0.133372 0.015685 0.021594
-0.132400 -0.029707 0.021755
-0.102121 -0.030261 0.018586
-0.125279 0.021899 0.021539
-0.133904 -0.020744 0.022372
-0.120158 -0.031683 0.020791
-0.069384 -0.036531 0.090052
-0.056029 -0.028143 0.058013
-0.067581 -0.016250 0.093239
-0.046399 -0.025873 0.029306
-0.066833 0.012372 0.089986
-0.071616 0.007477 0.093139
-0.068948 -0.034818 0.080905
-0.074496 -0.018774 0.093580
-0.074304 -0.031445 0.091622
-0.041925 -0.026278 0.017284
-0.074342 -0.006351 0.092692
-0.082417 -0.033940 0.090891
-0.066725 -0.031278 0.062236
-0.081096 -0.022727 0.091308
-0.079817 -0.034281 0.080945
-0.083721 -0.027064 0.091363
-0.052379 -0.026737 0.035627
-0.080259 0.002127 0.093688
-0.085065 -0.028632 0.087635
-0.083669 -0.034806 0.085439
-0.085159 0.000036 0.093149
-0.085716 0.007806 0.091301
-0.085462 -0.013717 0.090085
-0.083616 -0.025022 0.080908
-0.074864 -0.033012 0.066625
-0.084491 -0.007257 0.082763
-0.088205 -0.003774 0.090086
-0.089392 0.004047 0.090215
-0.084465 -0.016906 0.081469
-0.082709 -0.020493 0.074782
-0.086863 -0.000137 0.083768
-0.081068 -0.032598 0.071978
-0.083508 -0.011115 0.075412
-0.087957 0.007811 0.083800
-0.084134 -0.026463 0.072174
-0.068529 -0.031606 0.053970
-0.064953 -0.030814 0.043027
-0.086808 0.005619 0.076638
-0.085122 -0.001758 0.074624
-0.081464 0.014825 0.079355
-0.064075 -0.030158 0.048321
-0.076431 0.012197 0.089243
-0.071151 -0.033467 0.074359
-0.084638 -0.013732 0.066611
-0.084812 0.010135 0.070638
-0.084078 -0.024288 0.066676
-0.084033 -0.025845 0.058371
-0.086916 -0.004596 0.068557
-0.079558 -0.032862 0.058752
-0.084050 -0.008692 0.059523
-0.086620 0.007632 0.062701
-0.086045 -0.000548 0.062076
-0.086194 -0.020175 0.050105
-0.086669 -0.001683 0.052502
-0.088083 0.005707 0.054612
-0.064718 0.007876 0.093293
-0.086437 -0.014244 0.044811
-0.066624 -0.032123 0.030791
-0.085953 0.009651 0.048596
-0.085487 -0.035427 0.039620
-0.088070 -0.004375 0.043494
-0.085647 -0.023787 0.043145
-0.085382 -0.027611 0.048732
-0.079293 -0.035705 0.035303
-0.088169 0.000228 0.042638
-0.089597 0.007120 0.040053
-0.086512 -0.026306 0.038033
-0.089074 -0.004761 0.036974
-0.089119 -0.016551 0.037465
-0.088781 -0.030197 0.037469
-0.066687 -0.032332 0.024758
-0.094400 0.012468 0.036684
-0.087541 -0.035578 0.032758
-0.084665 0.015733 0.034247
-0.095906 -0.007959 0.036065
-0.095847 -0.020080 0.035736
-0.099529 0.001838 0.037747
-0.083114 -0.034542 0.028089
-0.097073 0.012236 0.035330
-0.095158 -0.033187 0.033286
-0.112654 -0.007107 0.035908
-0.108737 -0.028724 0.034497
-0.112518 0.005182 0.036834
-0.117352 0.010297 0.037321
-0.123881 0.005021 0.039410
-0.121935 0.003406 0.038836
-0.116829 -0.027591 0.035955
-0.116032 0.000014 0.036504
-0.063378 -0.030602 0.018956
-0.115206 -0.019536 0.034711
-0.075909 -0.032651 0.022874
-0.101126 -0.023701 0.035033
-0.102705 -0.008405 0.035567
-0.105287 0.009244 0.036672
-0.124052 -0.002175 0.036841
-0.119938 -0.011236 0.035482
-0.088810 -0.030922 0.019531
-0.134376 -0.031491 0.027573
-0.099419 -0.032350 0.023784
-0.123608 0.018459 0.029458
-0.131337 -0.007006 0.036927
-0.126222 -0.012254 0.035781
-0.129673 0.004694 0.037189
-0.125124 -0.025694 0.034540
-0.120867 -0.032339 0.033309
-0.131328 -0.018022 0.032781
-0.134328 -0.023044 0.033459
-0.133852 -0.031492 0.033923
-0.111656 -0.033004 0.027995
-0.136657 0.001801 0.037376
-0.118887 0.017168 0.031568
-0.135481 -0.009980 0.032513
-0.109851 0.020258 0.027823
-0.136621 0.000051 0.033494
-0.139460 0.006259 0.036776
-0.096414 0.023168 0.024614
-0.126082 -0.033383 0.024879
-0.136537 0.009607 0.026725
-0.110978 0.016493 0.033022
-0.124019 0.010768 0.036252
-0.091599 -0.032444 0.024952
-0.136122 0.009950 0.036173
-0.127518 -0.034164 0.033585
-0.065116 -0.031076 0.037137
-0.045772 -0.025362 0.052731
0.015864 -0.026233 0.047560
-0.134290 0.012996 0.013637
-0.132855 -0.030328 0.013656
-0.042892 -0.024858 0.040192
-0.085137 0.002777 0.070831
-0.049615 -0.028282 0.092136
-0.029598 -0.013443 0.093969
-0.033099 -0.030674 0.070249
-0.029164 -0.036586 0.092688
-0.025637 -0.000948 0.093917
-0.076158 -0.034344 0.044959
-0.085238 -0.018261 0.056916
-0.084247 0.013036 0.058754
-0.009175 -0.002371 0.095763
-0.018922 -0.032875 0.073949
-0.085780 -0.011700 0.053834
-0.083390 -0.034170 0.049211
-0.052798 -0.027936 0.023316
-0.009936 -0.026299 0.093523
-0.106891 -0.002832 0.036483
-0.107009 -0.014446 0.035062
-0.103531 -0.033682 0.032968
-0.135661 0.002295 0.026383
-0.057337 -0.028735 0.014509
-0.135788 -0.010541 0.024066
0.007908 -0.038599 0.090096
-0.134291 -0.009752 0.009381
-0.130314 -0.029106 0.009326
0.058618 -0.007848 0.094493
0.052511 -0.041789 0.091104
-0.134244 -0.008817 -0.003771
-0.134121 -0.023044 -0.007539
0.080613 0.002729 0.088263
-0.133181 0.017152 -0.013155
0.067135 -0.035852 0.071330
0.090243 -0.029915 0.035288
-0.134264 -0.019309 -0.013220
0.098561 -0.028376 -0.003358
0.082521 -0.036802 -0.061341
0.055792 -0.035781 -0.045449
0.034902 -0.037176 -0.059306
-0.129508 0.020267 -0.049211
-0.136572 -0.010811 -0.035091
-0.135082 -0.021139 -0.022214
3 0 1 2
3 2 3 4
3 5 6 7
3 2 4 5
3 8 9 0
3 0 2 5
3 5 7 10
3 10 11 12
3 12 13 14
3 14 15 16
3 16 17 18
3 19 20 21
3 14 16 18
3 19 21 22
3 18 19 22
3 23 24 25
3 18 22 23
3 10 12 14
3 10 14 18
3 0 5 10
3 26 8 0
3 27 28 29
3 26 0 10
3 27 29 26
3 30 27 26
3 10 18 23
3 25 31 32
3 25 32 33
3 23 25 33
3 10 23 33
3 34 35 36
3 37 38 39
3 34 36 37
3 34 37 39
3 39 40 41
3 41 42 43
3 43 44 45
3 45 46 47
3 47 48 49
3 49 50 51
3 51 52 53
3 53 54 55
3 55 56 57
3 58 59 60
3 55 57 58
3 51 53 55
3 47 49 51
3 43 45 47
3 34 39 41
3 41 43 47
3 47 51 55
3 55 58 60
3 61 62 63
3 55 60 61
3 34 41 47
3 47 55 61
3 63 64 65
3 34 47 61
3 61 63 65
3 65 66 67
3 67 68 69
3 69 70 71
3 71 72 73
3 73 74 75
3 76 77 78
3 73 75 76
3 69 71 73
3 61 65 67
3 67 69 73
3 73 76 78
3 78 79 80
3 80 81 82
3 80 82 83
3 67 73 78
3 78 80 83
3 84 85 86
3 67 78 83
3 83 84 86
3 87 88 89
3 83 86 87
3 34 61 67
3 67 83 87
3 90 91 92
3 93 94 90
3 95 93 90
3 96 95 90
3 97 98 96
3 99 100 97
3 101 102 99
3 103 104 101
3 105 106 107
3 107 103 101
3 99 97 96
3 107 101 99
3 108 109 105
3 107 99 96
3 108 105 107
3 110 111 112
3 112 108 107
3 107 96 90
3 110 112 107
3 113 114 115
3 115 110 107
3 115 107 90
3 116 117 113
3 113 115 90
3 118 116 113
3 119 120 118
3 121 122 119
3 123 124 125
3 125 121 119
3 118 113 90
3 125 119 118
3 126 123 125
3 127 128 126
3 129 130 127
3 131 132 129
3 133 134 131
3 135 136 133
3 137 138 135
3 137 135 133
3 133 131 129
3 127 126 125
3 133 129 127
3 133 127 125
3 125 118 90
3 139 140 141
3 142 143 139
3 144 142 139
3 145 146 147
3 148 149 145
3 150 151 148
3 152 153 150
3 154 155 152
3 156 157 154
3 158 159 160
3 160 156 154
3 152 150 148
3 160 154 152
3 161 158 160
3 162 163 161
3 164 165 166
3 166 162 161
3 166 161 160
3 167 164 166
3 168 169 167
3 167 166 160
3 152 148 145
3 167 160 152
3 167 152 145
3 145 147 144
3 167 145 144
3 167 144 139
3 167 139 141
3 170 171 172
3 172 173 174
3 174 175 176
3 177 178 179
3 174 176 177
3 170 172 174
3 89 170 174
3 174 177 179
3 179 180 181
3 182 183 184
3 179 181 182
3 89 174 179
3 87 89 179
3 179 182 184
3 185 186 187
3 179 184 185
3 67 87 179
3 185 187 188
3 188 189 190
3 191 192 193
3 188 190 191
3 179 185 188
3 179 188 191
3 191 193 194
3 194 195 196
3 196 197 198
3 198 199 200
3 200 201 202
3 202 203 204
3 204 205 206
3 206 207 208
3 208 209 210
3 208 210 211
3 204 206 208
3 200 202 204
3 194 196 198
3 198 200 204
3 204 208 211
3 204 211 212
3 194 198 204
3 179 191 194
3 67 179 194
3 194 204 212
3 213 214 215
3 194 212 213
3 194 213 215
3 216 217 218
3 194 215 216
3 194 216 218
3 218 219 220
3 221 222 223
3 218 220 221
3 194 218 221
3 221 223 224
3 224 225 226
3 226 227 228
3 228 229 230
3 230 231 232
3 232 233 234
3 235 236 237
3 232 234 235
3 228 230 232
3 224 226 228
3 194 221 224
3 194 224 228
3 228 232 235
3 237 238 239
3 194 228 235
3 235 237 239
3 239 240 241
3 241 242 243
3 244 245 246
3 241 243 244
3 235 239 241
3 235 241 244
3 244 246 247
3 247 248 249
3 249 250 251
3 251 252 253
3 251 253 254
3 247 249 251
3 194 235 244
3 244 247 251
3 244 251 254
3 255 256 257
3 257 258 259
3 259 260 261
3 262 263 264
3 259 261 262
3 255 257 259
3 254 255 259
3 262 264 265
3 254 259 262
3 244 254 262
3 262 265 266
3 267 268 269
3 262 266 267
3 194 244 262
3 194 262 267
3 270 271 272
3 273 274 270
3 275 276 273
3 277 278 275
3 279 280 277
3 281 282 283
3 279 277 275
3 284 281 283
3 283 279 275
3 273 270 272
3 284 283 275
3 275 273 272
3 275 272 285
3 284 275 285
3 286 287 288
3 289 290 291
3 291 286 288
3 291 288 284
3 292 289 291
3 293 294 292
3 295 296 297
3 297 293 292
3 291 284 285
3 297 292 291
3 298 295 297
3 299 300 298
3 301 302 299
3 303 304 305
3 305 301 299
3 298 297 291
3 305 299 298
3 306 303 305
3 307 306 305
3 305 298 291
3 307 305 291
3 308 309 310
3 310 311 312
3 313 314 315
3 316 317 318
3 313 315 316
3 308 310 312
3 312 313 316
3 316 318 319
3 312 316 319
3 269 308 312
3 267 269 312
3 267 312 319
3 194 267 319
3 320 321 322
3 323 324 320
3 325 326 323
3 327 328 325
3 329 330 327
3 329 327 325
3 325 323 320
3 329 325 320
3 331 332 333
3 334 335 336
3 336 337 338
3 338 339 340
3 338 340 341
3 333 334 336
3 342 331 333
3 319 342 333
3 333 336 338
3 338 341 343
3 343 344 345
3 345 346 347
3 348 349 350
3 345 347 348
3 333 338 343
3 343 345 348
3 350 351 352
3 348 350 352
3 348 352 353
3 319 333 343
3 343 348 353
3 319 343 353
3 354 355 356
3 356 357 358
3 359 360 361
3 356 358 359
3 354 356 359
3 359 361 362
3 362 363 364
3 359 362 364
3 354 359 364
3 365 366 367
3 368 369 370
3 370 365 367
3 371 368 370
3 372 373 371
3 374 375 372
3 376 377 374
3 378 379 380
3 380 376 374
3 374 372 371
3 374 371 370
3 378 380 374
3 381 382 378
3 383 384 385
3 385 381 378
3 378 374 370
3 378 370 367
3 386 383 385
3 385 378 367
3 387 388 389
3 390 391 392
3 393 394 395
3 390 392 393
3 396 390 393
3 393 395 397
3 398 399 400
3 393 397 398
3 364 396 393
3 364 393 398
3 398 400 401
3 398 401 402
3 364 398 402
3 403 404 405
3 406 407 403
3 408 409 406
3 408 406 403
3 408 403 405
3 410 408 405
3 411 412 413
3 414 415 411
3 416 414 411
3 416 411 413
3 417 418 419
3 416 413 420
3 417 419 416
3 421 422 417
3 423 424 421
3 425 426 427
3 427 423 421
3 421 417 416
3 427 421 416
3 425 427 416
3 428 429 430
3 431 432 433
3 433 428 430
3 433 430 425
3 434 431 433
3 435 434 433
3 435 433 425
3 436 437 438
3 438 435 425
3 439 436 438
3 440 441 439
3 442 443 440
3 444 445 442
3 446 447 444
3 448 449 446
3 450 451 448
3 452 453 450
3 454 452 450
3 450 448 446
3 446 444 442
3 442 440 439
3 442 439 438
3 454 450 446
3 446 442 438
3 446 438 425
3 455 456 457
3 458 459 460
3 461 462 463
3 463 458 460
3 464 461 463
3 465 466 467
3 467 464 463
3 468 465 467
3 469 468 467
3 470 469 467
3 471 472 473
3 473 474 475
3 475 476 477
3 477 478 479
3 479 480 481
3 477 479 481
3 471 473 475
3 475 477 481
3 482 471 475
3 457 482 475
3 455 457 475
3 455 475 481
3 483 484 485
3 486 487 488
3 488 483 485
3 488 485 489
3 490 486 488
3 491 490 488
3 488 489 492
3 493 494 495
3 496 497 498
3 498 493 495
3 499 496 498
3 500 501 499
3 502 503 500
3 504 502 500
3 500 499 498
3 504 500 498
3 505 506 507
3 508 505 507
3 509 510 508
3 511 512 513
3 509 508 507
3 514 511 513
3 509 507 504
3 509 504 498
3 515 516 517
3 518 519 515
3 520 521 522
3 522 518 515
3 522 515 517
3 523 520 522
3 524 525 526
3 527 528 529
3 524 526 523
3 530 527 529
3 529 524 523
3 523 522 517
3 529 523 517
3 530 529 517
3 531 532 533
3 531 533 534
3 531 534 530
3 535 531 530
3 536 537 538
3 539 540 541
3 542 543 544
3 544 539 541
3 545 536 538
3 546 542 544
3 547 548 546
3 549 550 547
3 551 552 549
3 553 554 551
3 553 551 549
3 549 547 546
3 549 546 544
3 553 549 544
3 555 556 557
3 557 558 559
3 557 559 560
3 555 557 560
3 561 562 563
3 560 561 563
3 563 564 565
3 565 566 567
3 567 568 569
3 563 565 567
3 560 563 567
3 560 567 569
3 570 571 572
3 570 572 573
3 574 575 576
3 577 578 579
3 580 581 582
3 583 584 585
3 580 582 583
3 586 580 583
3 585 587 588
3 583 585 588
3 588 589 590
3 590 591 592
3 592 593 594
3 588 590 592
3 583 588 592
3 583 592 594
3 595 596 597
3 595 597 598
3 599 595 598
3 600 599 598
3 601 602 603
3 601 603 604
3 605 601 604
3 606 607 608
3 606 608 609
3 609 610 611
3 609 611 612
3 613 614 615
3 616 617 613
3 618 619 616
3 620 621 618
3 622 623 620
3 624 625 626
3 627 628 629
3 629 624 626
3 629 626 630
3 631 632 633
3 634 635 631
3 636 637 634
3 638 639 636
3 640 641 638
3 640 638 636
3 636 634 631
3 636 631 633
3 642 643 644
3 645 646 642
3 647 645 642
3 642 644 648
3 647 642 648
3 649 650 651
3 651 647 648
3 651 648 652
3 651 652 653
3 653 640 636
3 627 629 630
3 654 655 622
3 633 627 630
3 654 622 620
3 633 630 654
3 653 636 633
3 656 657 658
3 659 660 661
3 661 656 658
3 662 659 661
3 663 664 662
3 653 633 654
3 654 620 618
3 618 616 613
3 618 613 615
3 653 654 618
3 665 666 667
3 618 615 668
3 618 668 553
3 653 618 553
3 669 670 671
3 672 673 674
3 669 671 675
3 674 669 675
3 672 674 675
3 676 677 672
3 678 679 676
3 680 681 682
3 678 676 672
3 683 680 682
3 682 678 672
3 682 672 675
3 683 682 675
3 684 685 686
3 687 688 684
3 689 687 684
3 690 691 692
3 693 694 695
3 696 697 698
3 698 693 695
3 696 698 695
3 699 700 696
3 701 702 703
3 699 696 695
3 704 690 692
3 704 692 689
3 705 704 689
3 705 689 684
3 706 705 684
3 706 684 686
3 606 609 612
3 707 708 701
3 709 710 711
3 709 711 712
3 713 714 715
3 716 717 713
3 718 719 720
3 721 718 720
3 722 716 713
3 722 713 715
3 721 720 723
3 724 725 726
3 724 726 721
3 721 723 727
3 724 721 727
3 728 724 727
3 729 709 712
3 730 729 712
3 731 707 701
3 722 715 732
3 722 732 731
3 733 722 731
3 734 735 733
3 734 733 731
3 736 663 662
3 736 662 661
3 649 651 653
3 649 653 553
3 544 541 737
3 553 544 737
3 553 737 545
3 553 545 538
3 738 329 320
3 739 740 605
3 739 605 604
3 604 606 612
3 730 712 728
3 553 538 741
3 649 553 741
3 661 658 742
3 649 741 743
3 649 743 535
3 649 535 530
3 736 661 742
3 736 742 649
3 736 649 530
3 517 744 745
3 530 517 745
3 746 747 514
3 745 746 514
3 530 745 514
3 736 530 514
3 513 509 498
3 514 513 498
3 736 514 498
3 748 749 750
3 736 498 495
3 736 495 751
3 736 751 752
3 753 748 750
3 754 753 750
3 665 667 755
3 754 750 736
3 755 754 736
3 755 736 752
3 683 675 665
3 683 665 755
3 686 683 755
3 752 756 491
3 752 491 488
3 755 752 488
3 757 706 686
3 755 488 492
3 758 757 686
3 755 492 470
3 755 470 467
3 755 467 463
3 759 758 686
3 695 759 686
3 701 703 699
3 695 686 755
3 731 701 699
3 695 755 463
3 734 731 699
3 734 699 695
3 730 728 727
3 730 727 734
3 760 730 734
3 760 734 695
3 760 695 463
3 761 760 463
3 604 612 762
3 604 762 761
3 739 604 761
3 463 460 763
3 463 763 454
3 463 454 446
3 761 463 446
3 761 446 425
3 600 598 739
3 761 425 416
3 764 600 739
3 764 739 761
3 765 764 761
3 594 765 761
3 583 594 761
3 416 420 410
3 416 410 405
3 761 416 405
3 583 761 405
3 766 767 387
3 586 583 405
3 766 387 389
3 405 766 389
3 386 385 367
3 389 386 367
3 405 389 367
3 579 768 586
3 577 579 586
3 576 577 586
3 576 586 405
3 573 769 574
3 576 405 367
3 570 573 574
3 570 574 576
3 570 576 367
3 770 738 320
3 771 570 367
3 770 320 322
3 367 770 322
3 367 322 772
3 771 367 772
3 771 772 307
3 771 307 291
3 771 291 285
3 771 285 773
3 168 167 141
3 774 771 773
3 168 141 775
3 168 775 137
3 168 137 133
3 168 133 125
3 90 92 776
3 90 776 777
3 90 777 30
3 125 90 30
3 125 30 26
3 125 26 10
3 33 778 34
3 10 33 34
3 125 10 34
3 125 34 67
3 125 67 194
3 168 125 194
3 319 353 779
3 319 779 354
3 319 354 364
3 194 319 364
3 402 780 455
3 364 402 455
3 194 364 455
3 194 455 481
3 781 555 560
3 168 194 481
3 781 560 569
3 481 781 569
3 168 481 569
3 569 774 773
3 569 773 168
