ply
format ascii 1.0
comment Created by Blender 2.79 (sub 0) - www.blender.org, source file: ''
element vertex 399
property float x
property float y
property float z
element face 397
property list uchar uint vertex_indices
end_header
-0.027191 -0.038376 -0.056757
0.007793 -0.045180 -0.071017
0.009764 -0.045310 -0.072672
-0.051184 -0.027531 -0.043248
0.010765 -0.044944 -0.063213
-0.012198 -0.041542 -0.061070
-0.026946 -0.038193 -0.051976
-0.040066 -0.034092 -0.047959
-0.013072 -0.041145 -0.051934
0.010890 -0.044665 -0.056497
-0.044181 -0.032292 -0.040753
-0.027875 -0.038665 -0.064532
-0.012231 -0.041954 -0.071206
-0.038430 -0.035686 -0.060435
-0.060757 -0.015790 -0.023062
-0.042561 -0.034226 -0.069094
-0.049025 -0.028997 -0.056375
-0.054723 -0.024697 -0.051170
-0.045637 -0.033561 -0.075881
-0.051288 -0.027992 -0.064682
-0.049497 -0.030880 -0.074185
-0.060429 -0.017633 -0.036850
-0.056518 -0.023561 -0.059870
-0.054854 -0.025406 -0.072740
-0.060238 -0.018700 -0.051849
-0.061422 -0.016935 -0.046459
-0.056566 -0.020431 -0.066625
-0.060335 -0.016105 -0.059820
-0.060129 -0.017526 -0.073151
-0.061357 -0.015810 -0.069145
-0.060951 -0.007819 -0.014861
-0.062505 -0.008026 -0.023016
-0.061755 -0.008201 -0.030027
-0.062689 -0.008622 -0.036899
-0.062145 -0.009341 -0.075452
-0.064105 -0.007559 -0.047135
-0.063895 -0.006527 -0.059162
-0.064460 -0.006191 -0.069473
-0.066142 -0.005584 -0.075278
-0.065722 -0.005129 -0.055822
-0.067496 0.003199 -0.074506
-0.066030 0.003317 -0.069213
-0.064376 0.003275 -0.059263
-0.065076 0.002346 -0.046083
-0.066732 0.010720 -0.075646
-0.061817 0.000403 -0.030414
-0.063031 0.001847 -0.036777
-0.066653 0.007290 -0.055652
-0.064647 0.012128 -0.068265
-0.063040 0.015878 -0.072687
-0.062806 0.013563 -0.058661
-0.031477 0.038783 -0.072172
-0.040412 0.035800 -0.069157
-0.047532 0.033445 -0.069047
-0.052020 0.030220 -0.065166
-0.031932 0.038258 -0.064963
-0.053830 0.026158 -0.056350
-0.065081 0.007729 -0.031158
-0.056370 0.023157 -0.050419
-0.048136 0.031443 -0.055056
-0.036077 0.036035 -0.052877
0.039949 0.042162 -0.010559
-0.010639 0.039790 -0.041183
-0.002368 0.040181 -0.034596
-0.060160 0.017300 -0.065411
-0.051465 0.027817 -0.047329
-0.030632 0.036292 -0.045935
-0.026136 0.036496 -0.043119
-0.030225 0.033932 0.000767
-0.060323 0.013454 -0.006559
-0.046632 0.027464 -0.003206
-0.044651 -0.032874 -0.056748
-0.058468 -0.018978 -0.028762
-0.015193 -0.040808 -0.045169
-0.053530 -0.025658 -0.028904
0.006791 -0.044185 -0.048087
0.010112 0.039590 0.036646
-0.010866 0.034843 0.028408
0.014672 0.041086 0.041214
-0.035045 0.029802 0.037664
-0.058604 0.013968 0.017242
-0.053063 0.021361 0.025705
-0.024206 0.031265 0.042841
-0.050631 0.023903 0.012273
0.024857 0.040254 0.042115
-0.056314 -0.021496 -0.021265
-0.035795 -0.035690 -0.036862
-0.048285 -0.029414 -0.032516
-0.016147 -0.040547 -0.039423
-0.042755 -0.032692 -0.033828
0.001545 -0.043217 -0.028900
0.002725 -0.043432 -0.033138
-0.017110 -0.040286 -0.033698
-0.032381 -0.037095 -0.027762
-0.041326 -0.033292 -0.025642
-0.051553 -0.026455 -0.020272
-0.019284 -0.039952 -0.027032
-0.021476 -0.039620 -0.020399
-0.044417 -0.031505 -0.019626
-0.001446 -0.042819 -0.021625
-0.004457 -0.042422 -0.014388
-0.036441 -0.035562 -0.016755
-0.054149 -0.024948 -0.013417
-0.007091 -0.042052 -0.007513
0.016013 -0.045215 -0.003991
-0.022830 -0.039275 -0.012896
-0.041551 -0.033651 -0.009177
-0.034247 -0.036291 -0.008642
-0.047618 -0.029667 -0.011665
-0.025990 -0.038631 0.000713
-0.052305 -0.025965 -0.006512
0.009060 -0.044620 0.004402
-0.038964 -0.034665 -0.001759
-0.011605 -0.041366 0.005507
0.005080 -0.043881 0.018440
0.005141 -0.044158 0.012076
-0.036617 -0.035597 0.007362
-0.044280 -0.033083 0.003983
0.013979 -0.046390 0.026302
-0.050251 -0.028419 0.001996
-0.016812 -0.040645 0.018831
-0.029991 -0.037394 0.013179
-0.004303 -0.042938 0.033016
-0.028662 -0.037771 0.019925
-0.043007 -0.032855 0.010717
0.019326 -0.044367 0.047455
0.001913 -0.045442 0.037949
-0.016592 -0.040203 0.029505
-0.008122 -0.041785 -0.001914
-0.047243 -0.030259 0.012405
-0.055311 -0.024002 0.006842
-0.018002 -0.040031 0.032585
-0.038874 -0.034432 0.019899
-0.061665 -0.015646 -0.000981
-0.000539 -0.043315 0.027207
-0.033071 -0.036715 0.027837
-0.011390 -0.042351 0.041155
-0.004380 -0.044885 0.045440
-0.009586 -0.043673 0.050082
-0.044063 -0.032329 0.023818
0.002063 -0.043455 0.054629
-0.053395 -0.025692 0.014922
0.006160 -0.045042 0.050334
0.004479 -0.043754 -0.039523
-0.061496 0.002414 0.008448
-0.056805 0.016049 0.025473
-0.035573 0.025732 0.041754
-0.029397 0.030946 0.057105
-0.044210 0.022732 0.043323
-0.054858 0.019870 0.038868
-0.008684 0.032625 0.068121
-0.038659 0.023796 0.051346
-0.060075 0.012029 0.029211
-0.051435 0.020020 0.043755
0.019576 0.026034 0.063164
-0.029987 0.030337 0.067050
-0.016506 0.030691 0.070008
-0.036988 0.026648 0.060671
-0.062577 0.003057 0.020997
-0.037274 0.023100 0.068874
-0.029681 0.023105 0.070651
-0.017438 0.023242 0.072306
-0.052683 0.013265 0.048450
-0.061720 0.006557 0.037225
-0.048494 0.013436 0.057949
-0.058202 0.007988 0.047856
0.015553 0.017352 0.067934
-0.062426 0.001966 0.029200
-0.050701 0.009530 0.061389
-0.014445 0.014010 0.072698
-0.003972 0.014240 0.073102
-0.052642 0.005363 0.051708
-0.021874 0.011392 0.070439
-0.063599 0.000565 0.035957
-0.048018 0.007267 0.065398
-0.060285 -0.003417 0.016938
-0.063087 0.000722 0.042983
-0.050488 0.004016 0.056848
-0.056937 0.000687 0.050078
-0.052159 0.001587 0.060495
-0.038525 0.003903 0.070495
-0.001947 0.013067 0.074782
-0.043541 0.002610 0.067849
-0.028747 0.003965 0.068084
-0.048869 0.000824 0.065851
-0.020025 0.004062 0.067970
-0.058708 -0.002268 0.066219
-0.014080 0.004165 0.069845
0.014800 0.008268 0.069959
-0.006136 0.004294 0.071930
0.007324 0.006204 0.072516
-0.058121 -0.004621 0.065890
-0.001438 0.004404 0.074756
-0.062574 -0.007748 0.035531
-0.047715 -0.005747 0.067164
-0.052745 -0.006751 0.051058
-0.061946 -0.008449 0.043541
-0.061418 -0.007225 0.008839
-0.055988 -0.008852 0.049302
-0.061896 -0.008926 0.029274
-0.053048 -0.009271 0.060136
-0.036019 -0.006879 0.069159
-0.042174 -0.008491 0.066032
-0.060472 -0.010087 0.036997
-0.026050 -0.005732 0.066582
-0.048271 -0.009562 0.057476
-0.062402 -0.009332 0.020415
-0.019398 -0.005688 0.067908
-0.013346 -0.005635 0.069711
0.007186 -0.002478 0.073602
-0.005397 -0.005573 0.071795
-0.001748 -0.005478 0.075315
-0.056459 -0.014599 0.046031
-0.041864 -0.015675 0.066795
-0.050053 -0.016633 0.059057
-0.060318 -0.017270 0.043800
-0.027506 -0.015359 0.067962
-0.046407 -0.018356 0.058239
-0.051074 -0.018549 0.048094
-0.019605 -0.015415 0.068418
0.013964 -0.006818 0.071037
-0.048758 -0.023682 0.061331
-0.012715 -0.015431 0.069648
-0.046256 -0.025346 0.067710
-0.034985 -0.026487 0.069783
0.030825 -0.001894 0.062937
-0.019566 -0.021484 0.068620
-0.041228 -0.028634 0.067832
-0.056863 -0.024154 0.043781
-0.060438 -0.017426 0.020368
-0.012942 -0.024813 0.071367
-0.048048 -0.026002 0.046403
-0.032215 -0.033334 0.067523
-0.038749 -0.034319 0.064204
-0.052844 -0.026782 0.038716
-0.002884 -0.025154 0.071255
-0.040896 -0.033503 0.057513
0.006832 -0.021807 0.070234
-0.058963 -0.018565 0.029810
-0.035381 -0.035789 0.052142
0.026357 -0.014668 0.063225
0.015104 -0.023302 0.066342
-0.056801 -0.021436 0.018044
-0.019143 -0.041141 0.063146
-0.046575 -0.030925 0.033873
-0.060446 -0.016887 0.008504
-0.021750 -0.041363 0.056035
0.009247 -0.013068 0.071335
-0.050400 -0.027591 0.024962
-0.004424 -0.039154 0.063408
-0.039234 -0.034360 0.036926
0.001773 -0.039395 0.062222
-0.025504 -0.038464 0.045095
-0.040487 -0.033724 0.031794
0.026913 -0.021537 0.061064
-0.032362 0.026675 0.044398
-0.057831 -0.019208 0.037357
-0.004587 -0.015438 0.071614
-0.043594 0.013319 0.066393
-0.045294 -0.027970 0.057103
-0.053093 -0.024676 0.030452
-0.003329 -0.034104 0.066980
-0.041174 -0.030872 0.042737
-0.015115 -0.035064 0.066080
0.006764 -0.033624 0.064692
-0.006397 -0.041685 0.060355
-0.045151 -0.030024 0.019973
0.025119 -0.032703 0.057007
0.016533 -0.034916 0.059730
0.015551 -0.040081 0.055996
-0.061704 -0.008168 -0.002656
-0.058648 -0.018577 -0.006840
-0.058292 -0.017633 -0.015826
0.023630 0.044055 -0.060795
0.010491 0.043418 -0.065544
-0.060666 -0.004781 -0.006876
0.004787 0.043141 -0.069404
0.015817 0.043677 -0.061330
-0.059047 0.022605 -0.071537
-0.014950 0.039576 -0.050980
-0.062633 0.012753 -0.037664
-0.026712 0.039025 -0.057759
-0.021550 0.039266 -0.055467
0.003334 0.040454 -0.027523
-0.055280 0.023855 -0.041706
-0.045506 0.031846 -0.046157
0.001737 0.040382 -0.026263
0.010057 0.040773 -0.021193
0.004998 0.040539 -0.022218
-0.062298 0.002225 -0.014705
-0.058828 0.020170 -0.035630
-0.064123 0.010561 -0.022860
-0.045608 0.030643 -0.032952
-0.022239 0.036718 -0.024990
-0.057261 0.021340 -0.027658
-0.042593 0.030798 -0.025795
-0.017435 0.036953 -0.015866
-0.047504 0.028123 -0.023165
-0.035303 0.033641 -0.019072
-0.054180 0.022957 -0.019542
-0.012425 0.037197 -0.006888
-0.061231 0.012023 -0.015122
-0.006006 0.037501 0.001545
-0.049837 0.025650 -0.010908
-0.036225 0.032404 -0.007066
-0.002001 0.037702 0.010761
0.008533 0.038174 0.015743
-0.058282 0.018925 -0.015270
-0.056233 0.020261 -0.005235
-0.042253 0.030131 0.000486
0.010321 0.038276 0.023966
-0.040481 0.030237 0.007428
0.018875 0.041264 0.032029
-0.062355 0.010088 -0.002039
-0.053016 0.021801 0.002890
0.008844 0.038228 0.029745
-0.019198 0.034500 0.028325
-0.035460 0.031334 0.022102
-0.008501 0.034959 0.032898
-0.042391 0.028596 0.019829
-0.060924 0.011564 0.007333
-0.047170 0.025984 0.020574
-0.007779 0.035012 0.038562
-0.054474 0.019213 0.015358
-0.027350 0.031731 0.037503
-0.009045 0.036249 0.047086
0.008482 0.038285 0.054812
-0.038885 0.030018 0.029362
-0.002777 0.037764 0.044161
-0.042338 0.028710 0.036572
-0.005688 0.037675 0.056875
-0.048756 0.024830 0.034019
-0.018654 0.033796 0.051411
0.012156 0.034652 0.060124
0.018838 0.031089 0.060409
-0.031071 0.029205 0.049379
-0.014629 0.034826 0.061616
-0.000307 0.034180 0.065437
-0.062180 0.009241 0.020147
-0.034237 0.029994 0.063534
-0.022036 0.030883 0.068338
0.001384 0.026771 0.069091
-0.059167 0.013513 0.038608
-0.023059 0.027200 0.070656
0.027889 0.021133 0.060964
-0.044359 0.019629 0.055791
-0.007430 0.025618 0.071164
0.007194 0.025693 0.068293
-0.042393 0.022081 0.065303
0.006619 0.016926 0.070490
-0.031028 -0.035935 0.037799
-0.003450 0.042743 -0.069314
-0.054475 0.027526 -0.074519
-0.009580 0.042446 -0.070945
0.022472 0.044001 -0.052982
-0.063658 0.001757 -0.023318
-0.065134 0.011518 -0.045417
-0.013929 0.042236 -0.070623
-0.061142 0.015785 -0.050699
-0.058341 0.019957 -0.057266
-0.051945 0.030177 -0.073613
-0.057068 0.023625 -0.063198
0.034585 0.044589 -0.047142
-0.042331 0.034463 -0.060661
-0.061809 0.013736 -0.029185
-0.026458 0.036507 -0.034610
-0.041200 0.032687 -0.038419
-0.051543 0.027074 -0.033649
-0.037090 0.033527 -0.028905
-0.005198 0.037528 -0.001212
-0.040176 0.031789 -0.014992
-0.061266 0.001578 -0.007431
-0.031688 -0.038293 -0.073831
-0.056350 -0.023295 -0.038775
-0.029780 -0.037764 -0.042968
-0.032943 0.033770 -0.011371
-0.025317 0.034171 0.009551
0.032929 -0.047190 -0.036657
-0.029783 -0.038440 0.061889
-0.024472 -0.035749 0.065822
-0.010954 -0.032217 0.068582
0.003507 -0.026742 0.069614
-0.025022 -0.026392 0.069501
0.018891 -0.010693 0.067957
0.001778 -0.014202 0.073299
-0.036259 -0.018324 0.070358
-0.046647 -0.020065 0.069257
-0.037231 0.013514 0.070683
-0.027864 0.014193 0.070914
-0.060555 0.000190 0.016988
0.000804 0.020515 0.069703
-0.061356 0.009308 0.043108
-0.022632 0.034324 0.020016
-0.064133 0.007689 0.036054
-0.045020 0.028442 0.011078
0.018086 0.023453 0.064234
-0.062380 0.002629 -0.000624
-0.036170 0.031276 0.016460
-0.056615 0.015792 0.005414
3 0 1 2
3 0 2 3
3 4 5 0
3 6 7 4
3 8 9 6
3 10 8 6
3 6 4 0
3 6 0 3
3 10 6 3
3 11 12 13
3 3 11 13
3 14 15 16
3 17 18 19
3 14 16 17
3 14 17 19
3 19 20 21
3 21 22 23
3 23 24 25
3 25 26 27
3 27 28 29
3 27 29 30
3 21 23 25
3 25 27 30
3 31 32 33
3 21 25 30
3 31 33 34
3 19 21 30
3 31 34 35
3 14 19 30
3 30 31 35
3 36 37 38
3 30 35 36
3 30 36 38
3 39 40 41
3 30 38 39
3 30 39 41
3 41 42 43
3 43 44 45
3 45 46 47
3 47 48 49
3 47 49 50
3 41 43 45
3 45 47 50
3 51 52 53
3 54 55 56
3 54 56 57
3 58 59 60
3 61 62 63
3 45 50 64
3 30 41 45
3 61 63 65
3 65 66 67
3 68 69 70
3 3 13 71
3 3 71 72
3 10 3 72
3 73 74 75
3 73 75 10
3 73 10 72
3 76 77 78
3 79 80 81
3 79 81 82
3 76 78 83
3 84 76 83
3 85 86 87
3 88 89 85
3 90 91 92
3 93 90 92
3 94 93 92
3 95 96 94
3 97 98 99
3 100 97 99
3 101 100 99
3 101 99 95
3 102 101 95
3 103 104 105
3 106 107 108
3 109 110 111
3 112 113 109
3 114 115 112
3 112 109 111
3 116 117 118
3 119 116 118
3 120 119 118
3 121 120 118
3 122 123 124
3 125 126 122
3 127 125 122
3 128 106 108
3 108 103 105
3 108 105 102
3 127 122 124
3 129 127 124
3 128 108 102
3 130 129 124
3 131 132 130
3 130 124 133
3 133 134 121
3 130 133 121
3 135 136 137
3 138 139 140
3 141 138 140
3 131 130 121
3 142 131 121
3 88 85 87
3 143 88 87
3 144 145 146
3 147 148 149
3 149 150 151
3 151 152 153
3 151 153 154
3 149 151 154
3 155 156 157
3 158 159 160
3 160 161 162
3 158 160 162
3 163 164 165
3 165 166 167
3 168 169 170
3 170 171 172
3 172 173 174
3 175 176 177
3 178 179 180
3 175 177 178
3 174 181 175
3 170 172 174
3 168 170 174
3 174 175 178
3 178 180 182
3 182 183 184
3 184 185 186
3 186 187 188
3 189 190 191
3 186 188 189
3 178 182 184
3 186 189 191
3 178 184 186
3 168 174 178
3 168 178 186
3 191 192 193
3 168 186 191
3 168 191 193
3 193 194 195
3 195 196 197
3 197 198 199
3 199 200 201
3 201 202 203
3 203 204 205
3 206 207 208
3 203 205 206
3 199 201 203
3 193 195 197
3 197 199 203
3 206 208 209
3 197 203 206
3 168 193 197
3 206 209 210
3 210 211 212
3 212 213 214
3 212 214 215
3 206 210 212
3 197 206 212
3 197 212 215
3 216 217 218
3 219 220 221
3 218 219 221
3 221 222 223
3 224 225 226
3 226 227 228
3 229 230 231
3 231 232 233
3 233 234 235
3 235 236 237
3 233 235 237
3 229 231 233
3 229 233 237
3 224 226 228
3 238 224 228
3 239 240 241
3 242 243 244
3 244 245 246
3 242 244 246
3 238 228 247
3 248 249 250
3 251 252 253
3 248 250 254
3 144 146 255
3 221 223 256
3 218 221 256
3 218 256 257
3 163 165 167
3 163 167 258
3 238 247 259
3 229 237 260
3 239 241 261
3 239 261 242
3 262 239 242
3 263 262 242
3 264 248 254
3 264 254 265
3 246 264 265
3 141 140 266
3 141 266 267
3 268 141 267
3 268 267 269
3 270 114 112
3 271 128 102
3 271 102 95
3 272 143 87
3 45 64 273
3 30 45 273
3 274 275 276
3 274 276 277
3 274 277 278
3 273 274 278
3 279 280 281
3 282 279 281
3 57 282 281
3 58 60 61
3 58 61 65
3 58 65 67
3 67 283 284
3 58 67 284
3 58 284 285
3 285 286 287
3 288 289 290
3 58 285 287
3 291 292 293
3 294 295 296
3 294 296 297
3 294 297 298
3 299 300 301
3 294 298 299
3 294 299 301
3 302 303 304
3 302 304 305
3 302 305 306
3 302 306 68
3 307 302 68
3 308 309 310
3 311 312 313
3 311 313 314
3 311 314 315
3 84 83 316
3 317 318 319
3 320 321 322
3 320 322 323
3 324 325 326
3 324 326 79
3 327 324 79
3 320 323 328
3 82 329 330
3 82 330 331
3 331 332 333
3 82 331 333
3 333 144 255
3 333 255 334
3 79 82 333
3 327 79 333
3 333 334 335
3 327 333 335
3 327 335 336
3 336 337 338
3 336 338 147
3 327 336 147
3 154 339 340
3 327 147 149
3 157 341 342
3 343 344 345
3 343 345 346
3 347 343 346
3 347 346 348
3 163 258 349
3 350 268 269
3 350 269 135
3 253 350 135
3 351 352 353
3 354 351 353
3 354 353 355
3 355 356 357
3 357 358 359
3 354 355 357
3 357 359 360
3 361 51 53
3 361 53 54
3 361 54 57
3 354 357 360
3 361 57 281
3 362 354 360
3 361 281 363
3 361 363 58
3 287 288 290
3 58 287 290
3 58 290 364
3 361 58 364
3 365 366 367
3 360 361 364
3 365 367 291
3 364 365 291
3 360 364 291
3 273 278 362
3 273 362 360
3 30 273 360
3 30 360 291
3 30 291 293
3 368 294 301
3 14 30 293
3 368 301 369
3 368 369 370
3 368 370 371
3 372 14 293
3 373 372 293
3 72 373 293
3 73 72 293
3 272 87 374
3 73 293 368
3 73 368 371
3 375 307 68
3 375 68 70
3 375 70 308
3 371 375 308
3 371 308 310
3 73 371 310
3 376 311 315
3 310 376 315
3 73 310 315
3 377 272 374
3 92 377 374
3 94 92 374
3 95 94 374
3 112 111 271
3 270 112 271
3 270 271 95
3 270 95 374
3 142 121 118
3 137 142 118
3 135 137 118
3 135 118 270
3 253 135 270
3 251 253 270
3 242 246 265
3 251 270 374
3 263 242 265
3 378 263 265
3 379 380 381
3 379 381 378
3 260 379 378
3 260 378 265
3 382 383 229
3 260 265 251
3 260 251 374
3 229 260 374
3 238 259 382
3 238 382 229
3 384 238 229
3 374 73 315
3 229 374 315
3 384 229 315
3 216 218 257
3 385 216 257
3 386 385 257
3 215 386 257
3 387 168 197
3 215 257 384
3 388 387 197
3 215 384 315
3 349 388 197
3 163 349 197
3 389 390 391
3 389 391 163
3 389 163 197
3 215 315 392
3 393 389 197
3 215 392 394
3 162 393 197
3 158 162 197
3 395 347 348
3 158 197 215
3 342 395 348
3 342 348 158
3 340 155 157
3 342 158 215
3 342 215 394
3 157 342 394
3 340 157 394
3 396 397 398
3 394 396 398
3 394 398 84
3 149 154 340
3 394 84 316
3 340 394 316
3 317 319 320
3 149 340 316
3 317 320 328
3 316 317 328
3 316 328 327
3 316 327 149
